PathFileType	4	(X/Y/Z)	D:\Long Term Storage\D'Arcy Smith\Coord8.trc
DataRate	CameraRate	NumFrames	NumMarkers	Units	OrigDataRate	OrigDataStartFrame	OrigNumFrames
120.00	120.00	      146	4	mm	120.00	1927	      5136
Frame#	Time	M1			M2			M3			M4			
		X1	Y1	Z1	X2	Y2	Z2	X3	Y3	Z3	X4	Y4	Z4	

1927	16.050	1076.67310	367.96780	348.65607	1578.48535	432.90369	264.88821							
1928	16.058	1079.61108	377.02817	329.10950	1578.09924	440.25372	255.00273							
1929	16.067	1082.43225	386.95795	310.21210	1577.98438	447.86588	245.75063							
1930	16.075	1086.27832	397.15344	291.26370	1576.65222	454.68393	237.42046							
1931	16.083	1088.87708	408.66193	273.25735	1576.22388	461.09009	229.49254							
1932	16.092	1092.93286	421.67575	251.66878	1575.93835	467.03476	222.28879							
1933	16.100	1095.49744	432.79712	238.09093	1577.07666	472.92560	216.00546							
1934	16.108	1097.32642	444.29108	223.56123	1575.60474	477.25977	210.53551							
1935	16.117	1099.53174	455.20413	210.24147	1574.75427	481.17276	205.83211							
1936	16.125	1101.41174	466.03989	199.62630	1574.39795	484.26089	201.85211							
1937	16.133	1102.81543	475.49408	190.07405	1574.96606	486.72650	198.63754							
1938	16.142	1103.59753	483.95645	181.73892	1573.20654	487.77402	196.11520							
1939	16.150	1104.15649	491.20950	175.21687	1572.54565	487.61292	194.27156							
1940	16.158	1103.88208	497.01910	169.86731	1572.43164	487.21399	193.75352							
1941	16.167	1103.64697	501.73111	165.71921	1572.33569	485.58087	193.53506							
1942	16.175	1102.57202	504.89651	163.07701	1573.34656	483.45999	194.16682							
1943	16.183	1101.07117	506.35968	161.02818	1571.24939	479.21634	195.75853							
1944	16.192	1099.68689	506.21567	161.42636	1572.30444	475.22366	198.10980							
1945	16.200	1097.02747	504.12997	162.56383	1573.45056	470.07458	201.27908							
1946	16.208	1094.86536	500.87161	164.42569	1572.49561	463.63864	205.88499							
1947	16.217	1092.55786	496.04520	167.31079	1574.22119	456.64590	210.58647							
1948	16.225	1090.08228	489.67816	171.28217	1574.32690	448.69177	217.33029							
1949	16.233	1087.51831	482.38995	176.19006	1575.43506	439.70670	224.35574							
1950	16.242	1084.92859	473.88562	181.80486	1576.54480	430.24426	233.24585							
1951	16.250	1082.49304	464.52618	188.41566	1577.49829	420.00537	242.96880							
1952	16.258	1080.11194	454.23825	196.02275	1579.63647	410.13702	254.20769							
1953	16.267	1077.77405	443.34103	204.50020	1580.80762	399.34650	267.34973							
1954	16.275	1075.71448	431.86502	213.72263	1582.57349	388.88110	281.88797							
1955	16.283	1074.03381	419.97986	223.69711	1584.38708	378.72394	297.76712							
1956	16.292	1072.21167	407.74319	234.58215	1586.82324	368.99194	314.92090							
1957	16.300	1070.61243	395.40320	245.50652	1588.40601	359.96341	332.82300							
1958	16.308	1067.91248	381.50937	262.48734	1590.20837	351.90292	351.45343							
1959	16.317	1066.88049	369.10709	275.68954	1592.28333	344.89893	370.76962							
1960	16.325	1066.00415	357.27493	290.26077	1594.61987	339.05127	390.59824							
1961	16.333	1065.16895	346.00394	305.22189	1596.25793	334.14453	410.62119							
1962	16.342	1065.11951	335.52982	321.10587	1597.96594	330.94064	431.26050							
1963	16.350	1064.76453	326.39859	338.00183	1602.08081	329.31021	451.46716							
1964	16.358	1064.72180	318.44464	355.57761	1603.72693	328.74576	470.63928							
1965	16.367	1064.70557	311.86157	373.90396	1605.14685	329.18777	488.83197							
1966	16.375	1064.41418	307.15491	393.53467	1606.22632	330.61209	505.73627							
1967	16.383	1064.53540	303.16031	411.92377	1606.61401	332.24310	520.88385							
1968	16.392	1064.47559	300.45605	429.84097	1607.26782	334.99628	534.21991							
1969	16.400	1064.21118	298.80276	447.42731	1607.21045	337.81992	545.74945							
1970	16.408	1063.98792	298.26968	464.46927	1606.89697	340.28079	555.44550							
1971	16.417	1063.60535	298.56409	480.73325	1606.38879	342.56757	563.08917							
1972	16.425	1063.26843	299.40454	496.26651	1605.80554	344.49954	568.64728							
1973	16.433	1062.33203	300.32184	511.18900	1605.08276	346.08221	572.25494							
1974	16.442	1062.17542	301.53345	523.63971	1604.38684	347.10355	573.82611							
1975	16.450	1061.84241	302.87442	535.18835	1603.40137	347.96368	573.35162							
1976	16.458	1061.32898	304.08521	546.03949	1602.09595	347.84293	571.21765							
1977	16.467	1060.54639	305.45963	555.74017	1600.94189	347.21957	567.41321							
1978	16.475	1059.97229	306.99298	566.05334	1599.71570	346.29831	561.96375							
1979	16.483	1059.05054	308.67361	575.45636	1598.44617	345.14438	555.01587							
1980	16.492	1058.07544	310.33194	583.60596	1597.29224	343.96075	546.61658							
1981	16.500	1057.11780	312.43347	590.81598	1595.87903	342.85559	536.96246							
1982	16.508	1056.10754	314.63309	597.47583	1594.58044	341.92819	526.00616							
1983	16.517	1055.04883	316.80771	602.83240	1592.10876	341.04721	513.79224							
1984	16.525	1053.92676	319.14432	607.19373	1591.34277	340.52121	500.71527							
1985	16.533	1052.74658	321.63202	610.89191	1590.40210	341.17422	486.60498							
1986	16.542	1051.77527	323.77048	612.10870	1589.45789	342.30182	471.33917							
1987	16.550	1050.49207	325.99966	612.85864	1588.42456	344.07532	455.00827							
1988	16.558	1049.48669	327.63846	611.05701	1587.66016	346.58368	438.01910							
1989	16.567	1048.63501	329.01746	607.84991	1585.16357	349.85031	420.11145							
1990	16.575	1047.80054	329.98026	602.84613	1583.31702	353.90427	402.22403							
1991	16.583	1047.03381	330.39066	597.01233	1583.91248	359.26205	383.68140							
1992	16.592	1046.52869	330.33032	588.32507	1584.34424	365.88654	365.78464							
1993	16.600	1046.07153	330.16757	578.67596	1582.22266	372.60062	347.62949							
1994	16.608	1045.70239	329.79575	567.86890	1579.91211	379.69165	330.81418							
1995	16.617	1045.28931	329.26483	556.19958	1579.47534	388.12662	313.74792							
1996	16.625	1046.00586	329.20621	541.27167	1579.72180	397.40710	297.23672							
1997	16.633	1046.45862	329.35065	525.79156	1580.10779	407.75848	281.81641							
1998	16.642	1047.19543	329.75159	510.14328	1578.38477	415.85272	267.45657							
1999	16.650	1048.61951	331.21011	490.68408	1574.61450	424.01309	254.15434							
2000	16.658	1049.39929	332.65604	473.46912	1576.02637	434.06085	242.49510							
2001	16.667	1050.59509	334.78638	455.58063	1574.92432	442.86902	231.48480							
2002	16.675	1052.00977	337.42966	440.16858	1572.28662	450.96634	222.40910							
2003	16.683	1053.76587	340.95813	421.22681	1573.21021	459.01141	213.38655							
2004	16.692	1055.90613	344.51157	401.98395	1571.22986	465.47293	206.45934							
2005	16.700	1057.95215	349.27396	384.23401	1570.70593	471.29285	200.99387							
2006	16.708	1060.49414	354.67484	365.67822	1570.44360	476.07993	196.98529							
2007	16.717	1063.24768	360.35806	347.83398	1570.27966	479.41754	194.24548							
2008	16.725	1065.87793	366.73276	330.66428	1570.28101	481.75781	192.97983							
2009	16.733	1068.37305	373.36484	314.43530	1570.58936	482.84592	192.66542							
2010	16.742	1070.93481	380.30658	298.91190	1571.19470	482.68192	193.35976							
2011	16.750	1073.45618	387.64655	284.13174	1571.85303	481.28079	194.78990							
2012	16.758	1076.73340	394.78723	269.64682	1572.68335	478.85751	196.99550							
2013	16.767	1079.13550	402.61063	256.22528	1573.74121	475.69940	199.83739							
2014	16.775	1081.28406	409.95483	242.93611	1574.54517	471.36737	203.24625							
2015	16.783	1083.17139	416.65903	232.52953	1576.78540	466.80240	207.32336							
2016	16.792	1085.15442	422.74896	223.82562	1576.49683	460.84668	212.05975							
2017	16.800	1086.88196	428.69888	215.63649	1578.54675	454.60037	217.18977							
2018	16.808	1087.97070	432.84360	209.97552	1579.27454	447.54944	223.28441							
2019	16.817	1088.40356	435.75168	205.69461	1579.84949	439.58844	229.74927							
2020	16.825	1088.61450	437.50052	202.98897	1581.41028	431.47113	238.20627							
2021	16.833	1088.45190	437.89844	201.90710	1582.09033	422.32773	246.86241							
2022	16.842	1087.93823	436.88882	202.22060	1583.82141	413.46790	256.68301							
2023	16.850	1087.19739	434.53616	203.93916	1585.41504	403.52325	268.43436							
2024	16.858	1086.24963	430.84338	206.78319	1586.56787	393.35928	281.36255							
2025	16.867	1085.17712	425.93130	211.03841	1587.83167	383.34552	295.51633							
2026	16.875	1084.33447	420.16449	216.32657	1588.82300	373.19299	310.94308							
2027	16.883	1083.49365	413.39508	222.50948	1590.10083	363.56558	327.48764							
2028	16.892	1082.23169	405.57626	229.92981	1591.15393	354.38766	345.29144							
2029	16.900	1081.74805	397.24957	238.16113	1592.94226	346.17902	364.22644							
2030	16.908	1080.95410	389.06656	245.41910	1595.77112	339.19257	384.66681							
2031	16.917	1079.09229	378.31961	260.69507	1597.31348	333.37762	405.30737							
2032	16.925	1078.84229	368.99615	270.96057	1598.47534	329.11572	426.61478							
2033	16.933	1078.86682	359.37183	282.01389	1601.13013	326.72418	447.71304							
2034	16.942	1079.46985	349.93176	293.30875	1602.53198	325.68106	468.72952							
2035	16.950	1079.59717	340.53772	305.78339	1603.72168	326.16077	489.16919							
2036	16.958	1079.66309	331.50641	319.30768	1605.20959	328.08093	508.69449							
2037	16.967	1079.85571	323.07455	333.48865	1606.18359	330.41229	526.58685							
2038	16.975	1079.90637	315.38483	348.06805	1607.59338	334.75674	542.71167							
2039	16.983	1080.07861	308.60175	362.94739	1608.32861	339.08109	556.88348							
2040	16.992	1079.61560	303.40244	380.34085	1608.99548	343.50266	568.82813							
2041	17.000	1079.48059	298.70758	396.08905	1609.28955	347.43558	578.24866							
2042	17.008	1079.43628	295.13110	412.60806	1609.31848	350.90366	585.32355							
2043	17.017	1079.06970	292.42334	428.27411	1609.13086	353.42606	589.85980							
2044	17.025	1078.87646	290.67551	444.31180	1608.50244	355.13385	591.98285							
2045	17.033	1078.40381	289.80020	459.78906	1607.68066	355.85031	591.72437							
2046	17.042	1078.05017	289.39963	474.50073	1606.50635	355.54745	589.27246							
2047	17.050	1077.67444	289.74667	488.69122	1605.13696	354.44577	584.78876							
2048	17.058	1077.41724	290.28339	502.32153	1602.95068	352.91785	578.17957							
2049	17.067	1077.19751	291.17325	514.84698	1600.84729	350.71924	570.03088							
2050	17.075	1077.40686	292.72519	524.33893	1598.62402	348.39078	560.25677							
2051	17.083	1077.24402	294.23117	535.52606	1596.20874	346.00327	549.22125							
2052	17.092	1077.36670	296.12332	545.67786	1593.70911	343.80603	537.21118							
2053	17.100	1077.18030	298.05515	555.25360	1591.31982	342.18109	524.13831							
2054	17.108	1076.69128	300.36169	566.13043	1588.84351	340.96506	510.42120							
2055	17.117	1075.85925	302.65970	574.89441	1587.07019	340.62057	496.24292							
2056	17.125	1075.65186	305.22864	581.11615	1584.91565	340.91080	481.22568							
2057	17.133	1075.34961	308.14130	586.18835	1583.65430	342.04419	465.68591							
2058	17.142	1075.11072	311.02985	590.06531	1581.62732	343.77710	449.88657							
2059	17.150	1075.61060	313.90570	591.20105	1579.01233	346.29645	433.40073							
2060	17.158	1075.56396	315.99994	591.81152	1577.33105	349.63342	416.57758							
2061	17.167	1075.51270	318.21649	590.93622	1576.26477	353.73422	400.32657							
2062	17.175	1075.57715	319.86215	588.96289	1575.35522	358.64716	384.07159							
2063	17.183	1075.80481	320.99829	584.48547	1575.02478	364.55646	367.91483							
2064	17.192	1076.29907	321.66132	578.73621	1574.52014	370.90668	352.04523							
2065	17.200	1076.88379	322.10666	570.90149	1574.22803	377.83636	336.39270							
2066	17.208	1077.46350	322.34723	562.27649	1574.10889	385.20639	321.07031							
2067	17.217	1078.48584	322.57645	551.46057	1572.56836	392.30563	306.78482							
2068	17.225	1079.58813	322.76025	539.69586	1574.30005	401.14343	291.89902							
2069	17.233	1080.89160	323.11035	526.40698	1572.79041	409.08246	279.37628							
2070	17.242	1082.57935	324.25702	509.31229	1572.81030	417.14481	265.15155							
2071	17.250	1083.95093	325.42935	494.05438	1574.25623	425.81949	253.11026							
2072	17.258	1085.91211	327.03152	477.86578	1573.31726	434.05225	242.61620							
